<svg xmlns="http://www.w3.org/2000/svg" viewBox="166 298 565 400" role="img" aria-label="Rizzoma RZM"><path fill="#FEE8D0" fill-rule="evenodd" d="M 170 301 L 170 694 L 171 695 L 201 647 L 201 307 L 203 305 L 239 305 L 256 309 L 275 319 L 286 329 L 291 336 L 296 346 L 298 353 L 299 373 L 296 384 L 292 392 L 286 400 L 276 409 L 264 415 L 253 417 L 249 419 L 226 419 L 220 417 L 213 417 L 226 422 L 234 423 L 243 426 L 253 427 L 266 436 L 277 451 L 288 474 L 299 503 L 307 518 L 318 531 L 329 538 L 335 540 L 515 540 L 521 518 L 498 528 L 466 534 L 439 535 L 438 536 L 384 536 L 383 535 L 374 536 L 372 534 L 404 480 L 419 457 L 424 447 L 442 419 L 442 417 L 445 414 L 471 369 L 477 361 L 481 353 L 484 351 L 487 355 L 487 357 L 505 394 L 510 407 L 512 409 L 514 416 L 517 420 L 527 444 L 533 455 L 535 462 L 537 464 L 542 477 L 554 501 L 563 523 L 566 527 L 567 532 L 572 540 L 577 540 L 580 536 L 582 529 L 588 518 L 588 516 L 590 514 L 610 468 L 612 466 L 616 455 L 633 420 L 641 400 L 643 398 L 643 396 L 649 385 L 658 363 L 660 361 L 662 354 L 664 352 L 669 340 L 671 339 L 673 344 L 673 353 L 675 361 L 680 413 L 681 414 L 683 436 L 684 437 L 684 447 L 685 448 L 687 470 L 688 471 L 688 481 L 690 487 L 690 496 L 692 505 L 695 538 L 696 540 L 727 540 L 726 526 L 724 518 L 724 509 L 723 508 L 723 501 L 721 492 L 721 484 L 719 475 L 719 467 L 718 466 L 718 459 L 717 458 L 717 451 L 715 442 L 713 416 L 711 408 L 710 391 L 709 390 L 709 383 L 707 374 L 707 366 L 705 358 L 703 332 L 701 324 L 700 308 L 699 304 L 697 303 L 696 304 L 680 304 L 679 305 L 679 307 L 676 311 L 662 344 L 659 348 L 658 353 L 655 357 L 636 401 L 634 403 L 630 414 L 601 475 L 598 484 L 596 486 L 590 499 L 586 495 L 586 493 L 565 449 L 557 429 L 555 427 L 552 418 L 545 405 L 536 383 L 534 381 L 532 374 L 530 372 L 522 352 L 520 350 L 510 326 L 508 324 L 504 313 L 499 304 L 494 304 L 493 303 L 473 303 L 472 304 L 414 304 L 413 303 L 412 304 L 367 304 L 365 303 L 364 304 L 359 304 L 358 309 L 354 317 L 354 320 L 351 325 L 351 329 L 357 324 L 369 318 L 397 311 L 413 310 L 414 309 L 437 309 L 438 308 L 461 308 L 462 309 L 463 308 L 470 308 L 472 310 L 472 312 L 350 510 L 344 516 L 335 499 L 335 497 L 333 495 L 328 481 L 326 479 L 320 466 L 311 453 L 294 437 L 285 432 L 278 430 L 274 427 L 291 422 L 310 411 L 320 400 L 328 385 L 331 371 L 330 355 L 328 347 L 322 335 L 315 326 L 307 319 L 294 311 L 282 306 L 278 306 L 276 304 L 271 304 L 267 302 L 260 302 L 254 300 L 171 300 Z"/></svg>